<svg xmlns="http://www.w3.org/2000/svg" xmlns:xlink="http://www.w3.org/1999/xlink" viewBox="-5.5 -5.1 136.5 136.5"><linearGradient id="A" gradientUnits="userSpaceOnUse"><stop offset="0" stop-color="#3465a4"/><stop offset="1" stop-opacity="0" stop-color="#3465a4"/></linearGradient><linearGradient id="B" gradientUnits="userSpaceOnUse"><stop offset="0" stop-color="#fff"/><stop offset="1" stop-color="#fff" stop-opacity="0"/></linearGradient><linearGradient id="C" gradientUnits="userSpaceOnUse"><stop offset="0" stop-color="#73a0d0"/><stop offset="1" stop-color="#fff"/></linearGradient><linearGradient id="D" xlink:href="#B"/><linearGradient id="E" gradientUnits="userSpaceOnUse"><stop offset="0" stop-opacity=".7"/><stop offset=".4" stop-opacity=".35"/><stop offset="1" stop-opacity="0"/></linearGradient><radialGradient id="F" cx="65.33" cy="63.5" fy="31.01" r="57.35" xlink:href="#E"/><linearGradient id="G" gradientUnits="userSpaceOnUse" x1="60.81" x2="428.63" y1="222.16" y2="222.16"><stop offset="0" stop-color="#4434e2"/><stop offset="1" stop-color="#15069a"/></linearGradient><radialGradient id="H" cx="244.72" cy="222.16" gradientUnits="userSpaceOnUse" r="183.91"><stop offset="0" stop-opacity=".7" stop-color="#fff"/><stop offset=".8" stop-color="#13059a" stop-opacity="0"/><stop offset="1" stop-color="#4434e2"/></radialGradient><radialGradient id="I" cx="33.42" cy="222.17" r="249.01" xlink:href="#D"/><radialGradient id="J" cx="60.81" cy="222.17" r="249.01" xlink:href="#D"/><linearGradient id="K" x1="123.25" x2="298.096" xlink:href="#D" y1="353.432" y2="50.43"/><linearGradient id="L" x1="372.832" x2="69.83" xlink:href="#D" y1="106.85" y2="281.696"/><linearGradient id="M" x1="112.168" x2="415.17" xlink:href="#D" y1="345.35" y2="170.504"/><linearGradient id="N" x1="361.75" x2="186.904" xlink:href="#D" y1="92.778" y2="395.78"/><radialGradient id="O" cx="246.35" cy="226.88" gradientTransform="matrix(1 -.577 .124 .215 -28.14 320.38)" r="154.36" xlink:href="#D"/><radialGradient id="P" cx="246.35" cy="226.88" gradientTransform="matrix(-.577 -1 .215 -.124 339.85 501.37)" r="154.36" xlink:href="#D"/><radialGradient id="Q" cx="156.5" cy="148.5" gradientUnits="userSpaceOnUse" r="19.5"><stop offset="0" stop-color="#fff"/><stop offset=".35" stop-opacity=".84" stop-color="#fff"/><stop offset="1" stop-color="#fff" stop-opacity="0"/></radialGradient><radialGradient id="R" cx="104.98" cy="98.51" gradientTransform="matrix(1.189 0 0 .766 -21.88 20.22)" r="94.91" xlink:href="#E"/><radialGradient id="S" cx="262.1" cy="89.63" gradientTransform="matrix(.459 0 0 .207 10.53 45.75)" r="142.27" xlink:href="#C"/><linearGradient id="T" x1="166.51" x2="94.9" xlink:href="#A" y1="161.01" y2="36.98"/><radialGradient id="U" cx="167.69" cy="141.67" gradientTransform="matrix(.648 0 .117 .709 37.76 -78.53)" r="21.77" xlink:href="#C"/><radialGradient id="V" cx="167.69" cy="141.67" gradientTransform="matrix(-.561 -.324 -.456 .555 385.36 14.61)" r="21.77" xlink:href="#C"/><linearGradient id="W" x1="185.18" x2="185.18" xlink:href="#B" y1="178.87" y2="162.24"/><radialGradient id="X" cx="185.18" cy="162.24" gradientTransform="matrix(1.766,0,0,3.005,-141.84,-325.26)" r="8.31" xlink:href="#B"/><radialGradient id="Y" cx="221.8" cy="186.6" gradientTransform="matrix(-.112 .419 -.513 -.138 305.54 -5.28)" r="66.98" xlink:href="#C"/><radialGradient id="Z" cx="221.52" cy="231.32" gradientTransform="matrix(.56 .15 -.099 .368 78.27 -37.3)" r="13.71" xlink:href="#D"/><radialGradient id="a" cx="231.54" cy="137.96" gradientTransform="matrix(.351 .462 -.843 .64 234.94 -166.62)" r="22.61" xlink:href="#C"/><radialGradient id="b" cx="211.68" cy="126.36" gradientTransform="matrix(.841 -.022 .027 1.039 8.02 -106.11)" r="14.33" xlink:href="#C"/><radialGradient id="c" cx="142.7" cy="188.13" gradientTransform="matrix(.787 0 0 .505 230.34 97.2)" r="76.51" xlink:href="#E"/><linearGradient id="d" x1="443.72" x2="418" xlink:href="#C" y1="270.76" y2="174.79"/><radialGradient id="e" cx="129.83" cy="205.85" gradientTransform="matrix(0.224,0.185,-0.308,0.374,304.44,51.17)" r="169.41" xlink:href="#A"/><radialGradient id="f" cx="235.33" cy="388.71" gradientTransform="matrix(.635 0 0 .559 162.72 -15.63)" r="126.07" xlink:href="#D"/><path d="m122.681 63.501a57.351 57.351 0 1 1 -114.701 0 57.351 57.351 0 1 1 114.701 0z" fill="url(#F)" transform="matrix(.62716 0 0 .22697 21.81 100.59)"/><g transform="matrix(0 -.26274 .26274 0 4.48 133.83)"><use xlink:href="#h" fill="#729fcf" stroke="#190b49" stroke-width="7.62"/><use xlink:href="#h" fill="url(#G)"/><use xlink:href="#h" fill="url(#H)"/></g><use xlink:href="#i" fill="url(#I)" transform="matrix(0 .19117 .19117 0 20.36 10.51)"/><use xlink:href="#i" fill="url(#J)" transform="matrix(0 -.15364 .20618 0 17.03 125.8)"/><g opacity=".5" transform="matrix(.26274 0 0 .26274 -1.45 11.11)"><path d="M201.582 398.665S25.596 220.7 234.16 39.888c-235.796 180.15-32.036 357.836-32.58 358.777z" fill="url(#K)"/><path d="M418.062 185.186S240.096 9.2 59.285 217.766c180.15-235.796 357.836-32.036 358.777-32.58z" fill="url(#L)"/><path d="M66.938 267.02s177.966 175.986 358.777-32.58C245.565 470.237 67.88 266.477 66.938 267.02z" fill="url(#M)"/><path d="M283.418 47.542s175.986 177.966-32.58 358.777c235.796-180.15 32.036-357.836 32.58-358.777z" fill="url(#N)"/><path d="M92 316s170.42-72.468 308.7-178.234C239 206 91 316 92 316z" fill="url(#O)"/><path d="M335.47 381.236s-72.468-170.42-178.234-308.7c68.234 161.7 178.234 309.7 178.234 308.7z" fill="url(#P)"/></g><g fill="url(#Q)"><path d="M176 148.5a19.5 19.5 0 1 1-39 0 19.5 19.5 0 1 1 39 0z" id="g"/><use href="#g" transform="matrix(.49194 0 0 .49194 -13.65 -2.15)"/><use href="#g" transform="matrix(.20869 0 0 .20869 55.1 14.92)"/><use href="#g" transform="matrix(.12811 0 0 .12811 77.47 31.92)"/><use href="#g" transform="matrix(.26274 0 0 .26274 6.7 4.8)"/><use href="#g" transform="matrix(.26274 0 0 .26274 49.28 15.32)"/><use href="#g" transform="matrix(.26274 0 0 .26274 36.93 57.9)"/><use href="#g" transform="matrix(.26274 0 0 .26274 -6.7 48.18)"/><use href="#g" transform="matrix(.20869 0 0 .20869 53.78 63.8)"/><use href="#g" transform="matrix(.12811 0 0 .12811 60.39 83.96)"/><use href="#g" transform="matrix(.20869 0 0 .20869 5.41 64.86)"/><use href="#g" transform="matrix(.20869 0 0 .20869 5.41 15.97)"/><use href="#g" transform="matrix(.12811 0 0 .12811 8.6 71.87)"/><use href="#g" transform="matrix(.12811 0 0 .12811 24.12 18.51)"/></g><g transform="matrix(.50045 0 0 .50045 -1.23 0)"><path d="M193.53 2.004c-1.895.063-4.32 1.1-5.5 5.5-.7-3.38-8.094-2.563-8.094-2.563s2.436 1.668 2.375 2.97v.03l-3.75.594c-.536-1.193.15-3.566-.188-5.22-1.048 1.587-1.505 3.834-1.72 5.656-1.206.325-2.407.707-3.563 1.156-4.327-7.285-11.327-10.54-19.813-5.28-4.635 2.872-6.804 7.47-7.438 12.563-13.507 2.807-28.827 5.156-42.188 5.156-32.73 0-51.288 21.703-51.594 57.125s4.9 43.966 8.25 45.188 1.22-1.22 1.22-1.22l2.438 1.5v-1.5l2.125.28 1.25-2.438h2.72s2.462-1.2 2.156-5.78 2.443-5.506 0-9.78-5.198-41.53-.313-45.5 19.865-13.144 31.47-15.28 19.847-5.167 46.72-.28c.02 1.768.154 3.858.438 6.438 1.54 13.987 6.342 16.266 12.656 27.344 7.678 13.718 18.677 16.044 32.03 8.594 11.007-6.436 16.264-6.033 24.594-17.375 1.695-2.308 2.94-4.154 3.875-5.78 2.008-1.484 4.006-2.952 5.906-4.188 9.273-6.222 20.233-19.286 14.03-30.844-5.017-9.35-13.42-9.507-21.22-4.47-.716-1-1.48-2.005-2.313-2.938.587-1.227 1.423-3.28 1.344-5-1.193 1.397-1.536 4.73-3.47 2.78s2-2.313 2-2.313-4.097-3.112-5.688-1.25c1.502-5.604-3.03-5.97-3.03-5.97s1.934 1.936 1.25 3.47c-.228.512-.8.863-1.438.938-.692-.415-1.375-.84-2.094-1.22-.16-.457-.202-1.06 0-1.813-1.196-.426-2.1-.098-2.78.47-.523-.232-1.062-.442-1.594-.656l.97-4.906-2.688 4.22c-.405-.145-.8-.272-1.22-.406-.126-1.717-.896-3.714-3.594-4.22-.457 1.707-1.37 2.48-2.344 2.688-.696-.133-1.394-.242-2.094-.344-.947-.52-1.62-1.438-1.53-2.344.226-2.335 4.063-3.313 4.063-3.313s-.37-.17-.97-.313a6.42 6.42 0 0 0-1.656-.156z" fill="#3465a4" stroke="#3465a4" stroke-linejoin="round" stroke-width="4"/><path d="M191.812 14.208c-1.822.06-4.155 1.058-5.3 5.3-.665-3.25-7.783-2.464-7.783-2.464s2.342 1.604 2.284 2.855v.03l-3.606.57c-.516-1.147.145-3.43-.18-5.018-1.008 1.527-1.447 3.687-1.653 5.44-1.16.313-2.315.68-3.426 1.112-4.16-7.005-10.892-10.134-19.052-5.08-4.457 2.762-6.543 7.184-7.152 12.08-12.988 2.7-27.72 4.958-40.568 4.958-31.472 0-49.32 20.87-49.613 54.932s3.847 39.7 7.077 40.884 1.172-1.172 1.172-1.172l2.344 1.442v-1.442l2.043.27 1.202-2.344h2.614s2.795-3.723 2.502-8.128 4.5-4.867 2.14-8.978-5.552-34.28-2.44-39.472c14.86-24.802 55.517-24.525 75.614-14.537 1.45.72.148 3.7.42 6.2 1.48 13.45 6.098 15.642 12.17 26.294 7.384 13.192 17.96 15.428 30.802 8.264 10.585-6.2 15.64-5.8 23.65-16.708 1.63-2.22 2.827-3.994 3.726-5.56 1.93-1.427 3.852-2.84 5.68-4.027 8.917-5.983 19.456-18.546 13.493-29.66-4.824-9-12.906-9.142-20.404-4.297-.7-.972-1.422-1.928-2.224-2.825.564-1.18 1.368-3.154 1.292-4.808-1.147 1.343-1.477 4.548-3.336 2.674s1.923-2.224 1.923-2.224-3.94-2.993-5.47-1.202c1.444-5.4-2.915-5.74-2.915-5.74s1.86 1.86 1.202 3.336c-.22.493-.778.83-1.382.902-.666-.4-1.323-.807-2.013-1.172-.155-.44-.194-1.02 0-1.743-1.15-.4-2.028-.094-2.674.45-.503-.224-1.02-.425-1.533-.63l.932-4.718-2.584 4.057-1.172-.4c-.12-1.65-.86-3.57-3.456-4.057-.44 1.642-1.32 2.384-2.254 2.584-.67-.128-1.34-.233-2.013-.33-.9-.5-1.557-1.383-1.472-2.254.218-2.245 3.907-3.185 3.907-3.185s-.356-.164-.932-.3a6.13 6.13 0 0 0-1.593-.15z" fill="url(#R)"/><path d="M181.535 8.22s-44.927 14.352-77.868 14.352c-32.73 0-51.3 21.68-51.607 57.103s4.886 43.973 8.245 45.194 1.22-1.22 1.22-1.22l2.443 1.527v-1.527l2.138.305 1.22-2.443h2.748s2.443-1.22 2.138-5.802 2.443-5.497 0-9.772-5.2-41.53-.305-45.5 19.85-13.13 31.453-15.268 19.85-5.2 46.72-.305 34.812-32.98 31.453-36.644z" fill="url(#S)"/><path d="M65.206 61.608c6.012 85.856-13.43 57.574-12.196 16.444.02 13.43-.228 27.176 3.645 40.083.872 2.155 1.75 4.85 4.033 5.898-3.157-4.274 2.538.558 2.822-1.38 3.05 1.635 2.405-3.542 5.66-2.063 2.092-.22 2.176-3.203 2.124-4.85-.452-3.3 2.393-6.618-.03-9.658-2.43-7.963-2.474-16.515-2.925-24.813.096-6.826-.615-14.12 2.12-20.523 3.44-3.675 8.24-5.916 12.488-8.5 8.12-4.64 17-7.828 26.282-9.17 14.12-3.23 28.76-1.374 42.803 1.152-47.863-13.4-74.588 7.256-86.828 17.382z" fill="url(#T)"/><path d="M153.28 4.856c-11.15 6.908-8.2 23.7-3.282 33.725 5.155 10.13 9.62 26.414 16.336 21.086 21.888-21.888 9.677-68.895-13.054-54.8z" fill="url(#U)"/><path d="M243.618 29.06c6.202 11.558-4.747 24.625-14.02 30.848-9.53 6.196-21.538 18.065-24.7 10.093-8.012-29.9 26.067-64.503 38.7-40.94z" fill="url(#V)"/><g fill="#fff"><path d="M195.188 2.165c-1.795-.425-5.578-.54-7.15 5.326-.7-3.38-8.094-2.563-8.094-2.563s2.433 1.68 2.372 2.98l-.005.018-3.764.605c-.536-1.193.162-3.573-.176-5.225-1.048 1.587-1.513 3.85-1.726 5.673-9.318 2.514-17.3 8.677-21.127 19.33-3.945 9.12-6.524 9.03-4.985 23.018s6.326 16.25 12.64 27.328c7.678 13.718 18.68 16.034 32.035 8.584 11.007-6.436 16.28-6.004 24.6-17.346s6.06-12.55 7.2-22.422c2.215-10.234-.915-19.063-6.934-25.8.587-1.227 1.425-3.304 1.346-5.024-1.193 1.397-1.534 4.734-3.467 2.786s2-2.318 2-2.318-4.082-3.1-5.672-1.238c1.502-5.604-3.034-5.973-3.034-5.973s1.926 1.952 1.243 3.485c-.228.512-.8.838-1.426.912-.692-.415-1.398-.826-2.116-1.205-.16-.457-.2-1.045.013-1.798-1.196-.426-2.113-.112-2.786.454a46.1 46.1 0 0 0-1.585-.668l.953-4.886-2.687 4.215c-.405-.145-.815-.27-1.224-.403-.126-1.717-.88-3.718-3.578-4.223-.457 1.707-1.363 2.487-2.336 2.695-.696-.133-1.4-.254-2.1-.356-.947-.52-1.635-1.442-1.548-2.347.226-2.335 4.074-3.3 4.074-3.3s-.368-.174-.966-.315z"/><path d="M223.412 59.27l10.614-7.666-2.963.296 5.572-4.36-5.13 1.246 8.226-5.16-7.298 2.196 8.093-6.013-6.28 1.294 6.9-4.76-6.8 2.348 5.13-5.718-6.148 2.148 2.3-4.568-3.494 1.35 1.636-4.368-2.83 1.15 1.06-2.108-8.846 4.153s2.5 4.84 3.186 11.562-2.917 16.977-2.917 16.977zm-67.736-18.15l-5.36-11.946 2.42 1.738-2.646-6.562 3.82 3.644-4.545-8.58 5.222 5.55-4.003-9.254 4.792 4.26-3.595-7.57 4.725 5.44-1.584-7.516 4.25 4.934.293-5.105 2.35 2.916.767-4.6 1.876 2.4.135-2.356 5.584 8.02s-4.576 2.948-8.54 8.42-5.962 16.16-5.962 16.16z"/></g><path d="M163.704 32.284s16.96 1.866 12.5 18.55c-15.82-4.24 3.627-14.23-12.5-18.55z" fill="#729fcf"/></g><path d="M86.354 22.117c-.3 1.123-1.16 2.005-2.278 2.308s-2.316-.018-3.132-.842-1.128-2.023-.814-3.14c.3-1.123 1.16-2.005 2.278-2.308s2.316.018 3.132.842 1.128 2.023.814 3.14z"/><use xlink:href="#j" fill="url(#W)" transform="matrix(.14753 .03964 -.01845 .06867 58.57 4)"/><use xlink:href="#j" fill="url(#X)" transform="matrix(.2331 .06262 -.03524 .13117 46.4 -13.9)"/><path d="M107.302 23.286S99.485 19.85 97.248 28.2c7.918 2.12 2-7.075 10.055-4.914z" fill="#729fcf"/><path d="M99.397 25.535c-.313 1.117-.002 2.316.814 3.14s2.013 1.145 3.132.842 1.99-1.185 2.278-2.308c.313-1.117.002-2.316-.814-3.14s-2.013-1.145-3.132-.842-1.99 1.185-2.278 2.308z"/><use xlink:href="#j" fill="url(#W)" transform="matrix(-.14753 -.03964 -.01845 .06867 132.5 23.78)"/><use xlink:href="#j" fill="url(#X)" transform="matrix(-.2331 -.06262 -.03524 .13117 151.99 14.38)"/><g transform="matrix(.50045 0 0 .50045 -1.23 0)"><path d="M152.846 39.282c-.78-.115-1.67.386-2.154 1.375-.386 2.455-.373 5.636.178 10.646 1.525 13.86 6.27 16.104 12.527 27.083 1.182 2.1 2.443 3.96 3.78 5.53-.218-1.1.187-2.665-.336-3.604-2.238-.105-.932-1.62.37-2.28 2.427-2.027-.967.3-1.87.112.622-2.95 3.2-5.018 5.092-7.207 2.6-2.12-.682-4.45-2.94-4.432-1.17-.904-5.422.86-4.244-1.5.907-1.9 1.554-3.537 3.228-4.9-1.1-.1-5.242 3.02-3.755-.002 1.377-2.548-2.32-.486-3.16.14-2.7 1.505-.586-1.568.37-2.28 1.822-1.398.162-2.667-1.457-1.7-3.296.8.85-1.558 1.843-2.1-.8-.5-2.693 1.024-4 .94-.022-1.308 2.3-2.075 3.193-3.105 2.535-1.908-1.16-1.45-2.348-.815-2.513.652.133-1.215 1.053-1.503 2.3-1.478-1.34-.727-2.16-.337-3.736 1.26-1.577-2.75-.03-3.913 1.512-2.8-1.558 1.216-2.493-.203-1.588-1.76 1.615-2.915.77-4.052-.16-1.18-.773-1.778-1.467-1.88zm70.87 19c-.596-.102-1.292.166-1.916.974-1.3.562.896 3.162-1.36 3.894-1.52.762-2.164-4.26-2.26-1.07.76 1.78.622 6.334-1.982 3.374-.514-.748-3.292-3.22-2.04-.788.653.7 1.994 3.644.144 1.824-.712-1.143-3.665-3.383-2.423-.463.26 1.34 1.868 3.16 1.196 4.28-1.165-.575-2.038-2.832-2.968-2.803.595.958 2.983 5.077.534 2.728-.924-1.638-2.978-1.364-2.1.758.47 1.095.758 4.8-.82 2.16-.415-.96-2.586-4.596-2.668-1.7-.224 3.36-2.27-1.43-3.27-1.88.768 2.017.5 3.757.346 5.857-.165 2.64-2.947-1.008-4.413-.8-1.948-1.143-5.946-.763-4.762 2.368.553 2.847 1.725 5.92.8 8.783-.872-.298-2.635-3.997-1.547-1.028.796 1.224 1.17 3.188-.82 2.16-.804.48-1.24 1.73-1.83 2.596 1.815-.658 3.687-1.52 5.603-2.6 10.9-6.38 16.135-5.95 24.4-17.2 3.165-4.3 4.786-7.144 5.646-9.55-.088-1-.698-1.75-1.467-1.88zm-54.85 26.843a2.44 2.44 0 0 1-.652-.063 23.68 23.68 0 0 0 1.06 1.046c-.1-.386-.22-.74-.406-.983zm18.337 4.914a2 2 0 0 0-.533.322l.78-.2zm-14.682-1.554l-.148-.002a18.26 18.26 0 0 0 .643.377c-.132-.177-.288-.32-.495-.374z" fill="url(#Y)"/><path d="M175.36 74.78c-3.634.208-4.48.7-3.854 3.694s2.358 7.214 6.364 8.288 7.62-1.714 9.66-3.994 2.585-2.368-1.5-5.126-7.048-3.07-10.682-2.862z"/><path d="M175.894 75.572c-3.172.182-3.912.6-3.364 3.225s8.272-2.903 5.556 7.235c2.708-10.106 6.65-1.496 8.435-3.487s2.257-2.067-1.3-4.475-6.153-2.68-9.325-2.5z" fill="url(#Z)"/><path d="M190.46 35.685s4.27 1.943 2.946 8.375c5.42-5.334 2.795-10.43 2.795-10.43s6.033 2.814 4.163 8.302c4.95-5.06 2.322-10.157 2.322-10.157s5.887.38 6.478 4.13c-.093-5.614-4.336-9.146-4.336-9.146s10.157 2.322 8.387 7.437c3.885-8.54-3.564-10.536-3.564-10.536s5.07-1.037 8.168 3.785c-1.183-7.503-6.245-8.896-6.245-8.896 5.27 2.27 7.323 6.2 6.9 13.864-.32-3.28-4.588-5.666-4.588-5.666s3.98 2.682-1.02 10.923c.453-4.67-4.375-6.734-4.375-6.734s3.634 4.893-.633 9.8c.725-4.197-2.627-5.095-2.627-5.095s.34 7.676-7.3 10.82c1.37-3.625-.365-6.086-.365-6.086s.592 3.752-6.838 6.152c2.588-3.698-.285-10.855-.285-10.855z" fill="url(#a)"/><path d="M188.926 11.045c-1.53-.678-6.2-1.648-9.654-.46 4.54-1.88 9.812 3.66 9.812 3.66s-7.5-1.673-10.376 1.867c8.184-2.47 10.735 4.436 10.735 4.436s-5.492-3.237-9.208.246c3.645-1.507 8.996 3.167 8.996 3.167s-3.396.122-5.54 4.363c2.712-1.337 6.564-.65 6.564-.65-3.14.403-4.7.93-8.508 3.277 2.515-4.915 5.04-6.292 5.04-6.292s-6.643-4.118-9.776-1.364c5.15-5.806 9.327-3.978 9.327-3.978s-6.86-3.744-10.092-.618c3.202-5.414 9.358-4.98 9.358-4.98s-2.635-2.928-8.207-2.296c7.084-4.1 13.058.297 11.528-.38z" fill="url(#b)"/></g><g transform="matrix(.50045 0 0 .50045 -101.28 0)"><use xlink:href="#k" fill="#3465a4" stroke="#3465a4" stroke-linejoin="round" stroke-width="4"/><path d="M417.275 178.936s1.762 44.046-37.586 49.038-64.895-13.214-82.514-24.666-28.2-31.42-28.2-31.42l2.055 1.175-2.35-3.23 2.055 1.762-2.35-4.698 1.762 1.175-2.055-5.286 2.936 3.817-2.055-5.286 2.35 1.175-.88-4.1 2.35 2.35-.294-2.936 2.35 1.175-.587-1.468 2.643 1.468v-1.762l2.35 1.468v-3.23l2.055 2.936v-2.35l2.055 2.936.294-1.762 2.056 2.055v-1.175l4.405 3.817.294-2.055s45.283 26.832 76.64 42.285c24.87 12.256 36.705 7.34 50.213-23.198z" fill="url(#c)"/><use xlink:href="#k" fill="url(#d)"/><use xlink:href="#k" fill="url(#e)"/><path d="M277.26 167.54c.52 5.57 20.582 19.55 20.582 19.55s-14.16-8.88-17.518-21.67c2.104 7.228 19.352 17.648 19.352 17.648s-9.93-6.447-16.062-20.63c4.394 6.15 17.5 16.662 17.5 16.662s-14.042-13.598-14.098-21.56c5.85 11.556 16.7 17.427 16.7 17.427s-7.557-3.27-13.707-18.202c7.145 10.9 19.363 15.597 19.363 15.597s-12.207-8.067-16.728-17.636c14.554 11.476 78.562 44.925 100.398 46.97-12.203 1.998-46.643-8.324-46.643-8.324s26.75 11.463 43 9.396c-16.1 2.423-51.052-6.898-51.052-6.898s35.06 11.074 48.402 8.878c-13.673 2.38-58.285-6.38-58.285-6.38s43.34 9.407 50.927 9.992c-15.442 2.054-57.9-8.56-57.9-8.56s44.52 12.333 51.867 10.418c-13.65 4.453-59.302-9.546-59.302-9.546s41.908 15.394 47.006 12.982c-28.863 5.6-72.835-18.607-83.8-46.113z" fill="url(#f)"/></g><defs><path id="h" d="M428.628 222.16a183.908 183.908 0 1 1-367.816 0 183.908 183.908 0 1 1 367.816 0z"/><path id="i" d="M428.628 222.16a183.908 183.908 0 1 1-367.816 0 183.908 183.908 0 1 1 367.816 0z"/><path id="j" d="M193.496 170.556a8.312 8.312 0 1 1-16.623 0 8.312 8.312 0 1 1 16.623 0z"/><path id="k" d="M420 169.148s1.832 45.805-39.087 50.996-67.486-13.74-85.808-25.65S265.8 161.82 265.8 161.82l2.138 1.22-2.443-3.36 2.138 1.832-2.443-4.886 1.832 1.22-2.138-5.497 3.054 3.97-2.138-5.497 2.443 1.22-.916-4.275 2.443 2.443-.305-3.054 2.443 1.22-.6-1.527 2.748 1.527v-1.832l2.443 1.527v-3.36l2.138 3.054v-2.443l2.138 3.054.305-1.832 2.138 2.138v-1.22l4.58 3.97.305-2.138s47.1 27.903 79.7 43.973c25.863 12.745 38.17 7.634 52.217-24.124z"/></defs></svg>